   When student Jake Lo witnesses a killing, he finds 
   himself caught between two feuding drug lords. 
   Betrayed and set up by the federal agents protecting
   him, the only one he can trust is Ryan, a 
   single-minded Chicago cop who reminds Jake of his 
   deceased father.
   To clear his name, Jake agrees to help Ryan bring
   down the drug lords



Format                         : CDXA/MPEG-PS
File size                      : 804 MiB
Duration                       : 46mn 47s
Overall bit rate mode          : Variable
Overall bit rate               : 2 404 Kbps

Video
ID                             : 224 (0xE0)
Format                         : MPEG Video
Format version                 : Version 2
Format profile                 : Main@Main
Format settings, BVOP          : Yes
Format settings, Matrix        : Custom
Format settings, GOP           : M=3, N=15
Duration                       : 46mn 47s
Bit rate mode                  : Variable
Bit rate                       : 2 164 Kbps
Maximum bit rate               : 2 530 Kbps
Width                          : 480 pixels
Height                         : 576 pixels
Display aspect ratio           : 4:3
Frame rate                     : 25.000 fps
Color space                    : YUV
Chroma subsampling             : 4:2:0
Bit depth                      : 8 bits
Scan type                      : Interlaced
Scan order                     : Top Field First
Compression mode               : Lossy
Bits/(Pixel*Frame)             : 0.313
Stream size                    : 724 MiB (90%)

Audio
ID                             : 192 (0xC0)
Format                         : MPEG Audio
Format version                 : Version 1
Format profile                 : Layer 2
Duration                       : 46mn 47s
Bit rate mode                  : Constant
Bit rate                       : 192 Kbps
Channel(s)                     : 2 channels
Sampling rate                  : 48.0 KHz
Compression mode               : Lossy
Delay relative to video        : 1s 322ms
Stream size                    : 64.3 MiB (8%)
